<svg width="2321" height="1650" viewBox="0 0 2321 1650" fill="none" xmlns="http://www.w3.org/2000/svg">
<path d="M1014.92 1516.37C1023.61 1515.19 1032.46 1516.17 1040.69 1519.23C1048.91 1522.29 1056.25 1527.33 1062.05 1533.91C1067.86 1540.49 1071.95 1548.4 1073.96 1556.94C1075.97 1565.48 1075.84 1574.39 1073.58 1582.87C1071.55 1601.6 1062.26 1618.78 1047.7 1630.72C1033.14 1642.67 1014.48 1648.43 995.729 1646.77H949.178L969.858 1516.37H1014.92ZM1012.87 1535.74H988.105L973.589 1627.38H997.432C1010.92 1628.32 1024.24 1623.89 1034.48 1615.07C1044.73 1606.24 1051.09 1593.73 1052.17 1580.25C1056.82 1551.58 1043.6 1535.74 1012.87 1535.74Z" fill="#252525"/>
<path d="M1226.48 1516.38L1223.32 1535.74H1154.79L1149.19 1571.33H1212.13L1209.15 1590.69H1146.22L1140.46 1627.38H1209.94L1206.96 1646.75H1116.08L1136.76 1516.35L1226.48 1516.38Z" fill="#252525"/>
<path d="M1319.8 1513.94C1333.72 1513.69 1347.42 1517.44 1359.27 1524.76L1356.29 1544.31C1345.81 1536.73 1333.1 1532.87 1320.18 1533.33C1303.96 1533.33 1292.44 1537.79 1290.77 1549.34C1286.66 1576.73 1361.7 1568.51 1354.27 1614.24C1349.97 1641.07 1325.77 1649.07 1301.58 1649.07C1285.41 1649.37 1269.47 1645.31 1255.41 1637.33L1258.57 1617.4C1271.21 1625.74 1286.09 1630.03 1301.23 1629.71C1318.18 1629.71 1330.96 1625.79 1332.69 1613.48C1337.53 1583.49 1262.41 1592.42 1269.38 1547.53C1272.33 1536.79 1279.06 1527.49 1288.32 1521.32C1297.58 1515.15 1308.76 1512.53 1319.8 1513.94Z" fill="#252525"/>
<path d="M1465.26 1516.37C1473.95 1515.19 1482.81 1516.17 1491.03 1519.23C1499.25 1522.29 1506.59 1527.33 1512.39 1533.91C1518.2 1540.49 1522.29 1548.4 1524.3 1556.94C1526.31 1565.48 1526.18 1574.39 1523.92 1582.87C1521.89 1601.59 1512.6 1618.77 1498.05 1630.71C1483.5 1642.66 1464.85 1648.42 1446.1 1646.77H1399.55L1420.23 1516.37H1465.26ZM1463.21 1535.74H1438.45L1423.93 1627.38H1447.83C1461.32 1628.32 1474.63 1623.89 1484.88 1615.07C1495.13 1606.24 1501.48 1593.73 1502.57 1580.25C1507.16 1551.58 1493.94 1535.74 1463.21 1535.74Z" fill="#252525"/>
<path d="M1676.82 1516.38L1673.66 1535.74H1605.13L1599.54 1571.33H1662.47L1659.49 1590.69H1596.56L1590.78 1627.38H1660.22L1657.25 1646.75H1566.37L1587.05 1516.35L1676.82 1516.38Z" fill="#252525"/>
<path d="M1844.83 1520.08L1827.69 1627.57H1850.24L1847.08 1646.77H1778.17L1781.33 1627.57H1806.66L1820.18 1541.87L1793.36 1551.37L1796.52 1531.81L1829.13 1520.08H1844.83Z" fill="#252525"/>
<path d="M1952.96 1517.67C1989.46 1517.67 2005.11 1543.01 1998.59 1583.63C1997.98 1601.27 1990.52 1617.98 1977.8 1630.22C1965.08 1642.46 1948.09 1649.27 1930.44 1649.2C1919.31 1649.29 1908.32 1646.67 1898.41 1641.58L1901.11 1622.95C1909.76 1627.96 1919.61 1630.53 1929.61 1630.38C1940.82 1630.6 1951.72 1626.7 1960.26 1619.43C1968.8 1612.15 1974.39 1602.01 1975.97 1590.9C1964.68 1597.14 1951.99 1600.41 1939.1 1600.39C1933.63 1600.94 1928.11 1600.21 1922.97 1598.27C1917.82 1596.33 1913.2 1593.23 1909.45 1589.22C1905.7 1585.2 1902.93 1580.37 1901.35 1575.1C1899.78 1569.84 1899.44 1564.28 1900.36 1558.86C1902.45 1546.69 1909 1535.73 1918.72 1528.12C1928.44 1520.5 1940.65 1516.78 1952.96 1517.67ZM1921.69 1559.59C1918.98 1576.73 1931.36 1581.95 1945.72 1581.95C1957.77 1581.73 1969.46 1577.84 1979.24 1570.78C1980.73 1545.63 1970.1 1536.14 1952.61 1536.14C1945.41 1535.28 1938.15 1537.23 1932.36 1541.6C1926.57 1545.98 1922.69 1552.42 1921.55 1559.59H1921.69Z" fill="#252525"/>
<path d="M2111.35 1517.67C2149.33 1517.67 2164.41 1547.1 2158.47 1584.74C2157.8 1601.91 2150.58 1618.16 2138.28 1630.15C2125.98 1642.15 2109.54 1648.96 2092.37 1649.18C2054.53 1649.18 2039.5 1619.76 2045.44 1582.12C2046.07 1564.97 2053.25 1548.71 2065.52 1536.72C2077.79 1524.72 2094.2 1517.91 2111.35 1517.67ZM2110.24 1537.04C2085.48 1537.04 2071.12 1553.42 2066.29 1583.41C2061.83 1612.29 2069.83 1629.79 2093.48 1629.79C2118.43 1629.79 2132.79 1613.4 2137.62 1583.41C2142.09 1554.56 2134.06 1537.04 2110.24 1537.04Z" fill="#252525"/>
<path d="M2262.41 1566.29C2267.84 1565.86 2273.3 1566.68 2278.38 1568.68C2283.45 1570.68 2288 1573.81 2291.68 1577.83C2295.36 1581.86 2298.07 1586.67 2299.62 1591.9C2301.16 1597.13 2301.49 1602.64 2300.58 1608.02C2298.55 1620.17 2292.06 1631.13 2282.38 1638.74C2272.7 1646.35 2260.52 1650.07 2248.24 1649.18C2211.56 1649.18 2195.91 1623.84 2202.42 1583.22C2202.92 1571.7 2206.31 1560.48 2212.3 1550.62C2218.28 1540.76 2226.66 1532.57 2236.65 1526.81C2246.64 1521.05 2257.93 1517.91 2269.46 1517.68C2280.99 1517.45 2292.39 1520.14 2302.61 1525.49L2299.63 1543.93C2291.05 1538.93 2281.26 1536.36 2271.33 1536.49C2260.17 1536.43 2249.37 1540.38 2240.89 1547.63C2232.41 1554.88 2226.83 1564.94 2225.16 1575.98C2236.52 1569.57 2249.36 1566.24 2262.41 1566.29ZM2279.36 1606.86C2282.06 1590.28 2269.87 1584.87 2255.51 1584.87C2243.4 1585.09 2231.65 1588.98 2221.8 1596.04C2220.13 1621.19 2230.56 1630.87 2247.86 1630.87C2255.19 1631.76 2262.59 1629.76 2268.46 1625.28C2274.34 1620.81 2278.24 1614.22 2279.33 1606.91L2279.36 1606.86Z" fill="#252525"/>
<path d="M191.528 806.224C212.652 805.716 233.571 810.464 252.406 820.042L247.703 851.519C234.363 843.409 219.298 838.563 203.733 837.376C188.168 836.188 172.543 838.693 158.128 844.685C143.713 850.678 130.916 859.989 120.777 871.862C110.638 883.735 103.443 897.834 99.7786 913.013C97.2568 922.682 97.1402 932.822 99.4391 942.546C101.738 952.27 106.383 961.284 112.967 968.798C119.551 976.313 127.874 982.1 137.21 985.655C146.546 989.21 156.61 990.424 166.523 989.191C177.903 989.443 189.214 987.344 199.746 983.025L212.1 905.36H245.323L229.455 1006.25C208.292 1015.04 185.624 1019.63 162.711 1019.78C108.888 1019.78 53.6062 986.541 65.9603 908.903C70.8803 879.464 86.3295 852.818 109.43 833.928C132.531 815.038 161.709 805.192 191.528 806.224Z" fill="#252525"/>
<path d="M259.651 1015.96L292.28 810.037H374.027C411.657 810.037 451.368 826.263 443.421 876.507C441.27 891.394 434.345 905.18 423.688 915.792C413.031 926.403 399.218 933.267 384.327 935.35L436.365 1015.96H398.735L349.616 938.892H305.499L293.145 1015.96H259.651ZM310.527 909.173H360.213C371.424 910.685 382.79 907.882 392.014 901.331C401.237 894.779 407.63 884.969 409.9 873.883C414.009 847.409 394.031 840.648 372.053 840.648H321.475L310.527 909.173Z" fill="#252525"/>
<path d="M649.979 810.037L629.406 940.65C626.947 964.095 615.278 985.603 596.967 1000.44C578.655 1015.28 555.201 1022.24 531.764 1019.78C485.808 1019.78 444.123 998.304 453.558 938.65L474.13 810.091H507.65L487.376 938.919C481.212 976.562 501.189 988.623 532.358 988.623C539.989 989.576 547.734 988.98 555.13 986.872C562.526 984.764 569.421 981.185 575.404 976.352C581.387 971.518 586.334 965.527 589.95 958.738C593.567 951.949 595.779 944.501 596.453 936.837L616.457 810.064L649.979 810.037Z" fill="#252525"/>
<path d="M760.624 810.037C803.877 810.037 844.723 826.506 836.316 879.752C828.368 930.942 788.089 945.356 739.268 945.356H697.8L686.608 1015.96H653.087L685.743 810.037H760.624ZM758.867 840.622H714.452L702.693 914.744H744.161C774.14 914.744 797.984 906.632 802.687 876.507C807.391 846.382 782.575 840.73 758.867 840.73V840.622Z" fill="#252525"/>
<path d="M944.448 1019.78C930.625 1020.58 916.804 1018.16 904.072 1012.72C891.34 1007.27 880.042 998.952 871.068 988.405C862.093 977.857 855.685 965.372 852.347 951.929C849.01 938.487 848.834 924.453 851.833 910.931C856.14 881.425 871.066 854.505 893.807 835.226C916.549 815.947 945.542 805.634 975.346 806.224C989.16 805.497 1002.96 807.96 1015.67 813.422C1028.37 818.884 1039.66 827.198 1048.64 837.721C1057.62 848.244 1064.06 860.693 1067.47 874.106C1070.87 887.518 1071.14 901.534 1068.26 915.068C1064.2 944.739 1049.3 971.855 1026.44 991.189C1003.58 1010.52 974.37 1020.71 944.448 1019.78ZM946.502 988.298C967.954 988.81 988.83 981.327 1005.08 967.305C1021.32 953.282 1031.78 933.721 1034.41 912.418C1036.84 903.305 1037.07 893.744 1035.08 884.525C1033.1 875.305 1028.94 866.69 1022.97 859.392C1017 852.094 1009.37 846.321 1000.73 842.549C992.09 838.778 982.675 837.116 973.264 837.701C951.841 837.203 930.998 844.7 914.797 858.732C898.596 872.764 888.197 892.327 885.624 913.608C883.207 922.697 882.978 932.228 884.956 941.422C886.934 950.616 891.063 959.21 897.004 966.498C902.945 973.787 910.529 979.562 919.133 983.352C927.737 987.141 937.116 988.837 946.502 988.298Z" fill="#252525"/>
<path d="M169.685 1094.63C208.16 1093.88 246.118 1103.58 279.52 1122.7L267.625 1200.23C240.033 1180.22 206.619 1169.86 172.551 1170.75C138.327 1171.24 123.108 1180.27 122.162 1194.06C119.323 1237.81 290.928 1229.22 269.545 1345.31C255.758 1421.02 195.853 1441.85 125.027 1441.85C81.2307 1442.8 38.0034 1431.79 0 1409.99L12.8404 1329.62C44.326 1353.72 83.0345 1366.47 122.675 1365.78C156.899 1365.78 177.822 1357.66 179.714 1342.95C187.338 1288.25 14.273 1304.42 33.2771 1187.43C43.7118 1123.64 105.509 1094.63 169.685 1094.63Z" fill="#252525"/>
<path d="M513.895 1434.68L503.082 1382.35H365.214L338.181 1434.68H245.945L429.471 1101.77H524.546L602.509 1434.68H513.895ZM402.655 1311.04H488.241L470.183 1217.83C467.821 1205.76 466.545 1193.51 466.371 1181.21C462.58 1193.54 457.647 1205.48 451.638 1216.88L402.655 1311.04Z" fill="#252525"/>
<path d="M727.509 1101.77L687.095 1356.2H839.236L826.882 1434.63H586.802L639.57 1101.71L727.509 1101.77Z" fill="#252525"/>
<path d="M991.837 1101.77L939.068 1434.68H851.13L903.899 1101.77H991.837Z" fill="#252525"/>
<path d="M973.129 1434.68L1025.9 1101.77H1099.1L1210.34 1291.06C1211.17 1273.05 1213.07 1255.11 1216.05 1237.33L1237.43 1101.79H1325.39L1272.6 1434.68H1199.4L1088.56 1245.87C1088.15 1262.45 1086.56 1278.98 1083.8 1295.33L1060.99 1434.68H973.129Z" fill="#252525"/>
<path d="M1524.76 1434.68L1513.95 1382.35H1376.08L1349.05 1434.68H1256.81L1440.34 1101.77H1535.41L1613.38 1434.68H1524.76ZM1413.52 1311.04H1499.11L1481.05 1217.83C1478.69 1205.76 1477.41 1193.51 1477.24 1181.21C1473.45 1193.54 1468.52 1205.48 1462.51 1216.88L1413.52 1311.04Z" fill="#252525"/>
<path d="M1783.25 1094.63C1821.73 1093.88 1859.68 1103.58 1893.09 1122.7L1881.19 1200.23C1853.6 1180.22 1820.19 1169.86 1786.12 1170.75C1751.89 1171.24 1736.67 1180.27 1735.73 1194.06C1732.86 1237.81 1904.49 1229.22 1883.11 1345.31C1869.32 1421.02 1809.42 1441.85 1738.59 1441.85C1694.8 1442.8 1651.57 1431.79 1613.57 1409.99L1626.41 1329.62C1657.88 1353.72 1696.58 1366.46 1736.21 1365.78C1770.44 1365.78 1791.36 1357.66 1793.25 1342.95C1800.85 1288.25 1627.81 1304.42 1646.82 1187.43C1657.3 1123.64 1719.07 1094.63 1783.25 1094.63Z" fill="#252525"/>
<path d="M2265.33 766.229C2265.31 854.797 2245.83 942.278 2208.26 1022.48C2170.69 1102.68 2115.95 1173.63 2047.93 1230.32C2035.68 1240.6 2035.96 1255.88 2047.93 1259.8C2060.61 1263.94 2073.64 1252.69 2082.78 1244.68C2162.25 1173.77 2224.82 1085.93 2265.89 987.641C2306.96 889.347 2325.48 783.095 2320.09 676.698C2314.7 570.301 2285.53 466.466 2234.74 372.83C2183.95 279.194 2112.82 198.138 2026.59 135.623C1940.35 73.1082 1841.21 30.7252 1736.44 11.591C1631.68 -7.54325 1523.96 -2.94201 1421.2 25.0563C1318.45 53.0546 1223.28 103.738 1142.69 173.378C1062.09 243.019 998.132 329.846 955.504 427.472C946.813 449.886 943.644 474.064 946.266 497.962C948.889 521.86 957.225 544.774 970.57 564.768C983.915 584.762 1001.88 601.248 1022.94 612.831C1044 624.415 1067.53 630.755 1091.56 631.316C1109.89 584.56 1203.04 150.507 1663.98 162.784C1995.92 171.627 2265.25 432.935 2265.25 766.256" fill="white"/>
<path d="M1275.76 546.429C1275.76 530.242 1280.56 514.419 1289.55 500.961C1298.54 487.503 1311.32 477.015 1326.27 470.823C1341.22 464.631 1357.67 463.014 1373.54 466.176C1389.41 469.338 1403.99 477.137 1415.43 488.586C1426.86 500.036 1434.65 514.621 1437.8 530.498C1440.95 546.375 1439.32 562.83 1433.12 577.781C1426.92 592.733 1416.43 605.509 1402.97 614.494C1389.51 623.479 1373.69 628.269 1357.51 628.258C1346.77 628.255 1336.14 626.135 1326.22 622.021C1316.3 617.907 1307.29 611.879 1299.69 604.28C1292.1 596.682 1286.08 587.662 1281.98 577.736C1277.87 567.81 1275.76 557.172 1275.76 546.429Z" fill="#48494B"/>
<path d="M1169.6 905.846C1299.25 1002.78 1456.68 1055.32 1618.54 1055.66C1785.51 1057.63 1948.23 1002.94 2080.13 900.492C2080.13 900.492 2109.65 880.427 2086.26 861.227C2069.45 847.409 2044.96 862.66 2032.68 871.178C1911.92 955.944 1769.21 1003.95 1621.78 1009.39C1461.25 1015.06 1303.12 969.183 1170.52 878.48C1170.52 878.48 1157.28 866.987 1153.36 882.076C1150.87 891.595 1169.58 905.792 1169.58 905.792" fill="#D1D3D5"/>
<path d="M1920.79 820.636C1832.38 871.122 1734.99 903.92 1634.06 917.204C1473.42 936.289 1310.88 903.817 1169.9 824.476C1169.9 824.476 1155.68 814.201 1153.11 829.587C1151.49 839.296 1171.47 851.789 1171.47 851.789C1310.08 937.598 1472.51 976.764 1634.98 963.553C1751.59 953.851 1864.33 917.093 1964.26 856.196C1976.85 849.864 1988.78 842.311 1999.89 833.644C2002.82 831.195 2005.16 828.112 2006.72 824.628C2008.28 821.143 2009.03 817.349 2008.91 813.532C2008.79 809.715 2007.81 805.976 2006.03 802.597C2004.25 799.217 2001.73 796.287 1998.65 794.027C1983.54 782.156 1970.72 790.89 1960.59 796.298C1956.67 798.38 1944.77 807.331 1920.82 820.636" fill="#AAADAF"/>
<path d="M1834.29 752.867C1772.42 785.164 1706.48 808.951 1638.25 823.582C1480.45 856.704 1316.2 838.649 1169.36 772.04C1169.36 772.04 1154.33 763.008 1153.14 778.53C1152.36 788.347 1173.31 799.109 1173.31 799.109C1283.32 854.608 1405.18 882.505 1528.37 880.395C1651.56 878.284 1772.39 846.229 1880.44 786.994C1880.44 786.994 1900.49 776.448 1912.41 768.903C1925.42 760.79 1932.26 744.268 1912.41 728.854C1897.44 717.307 1878.62 729.043 1870 733.397C1866.54 735.155 1847.64 746.053 1834.45 752.867" fill="#86898C"/>
<path d="M1743.68 686.373C1654.92 729.917 1558.45 755.539 1459.8 761.775C1361.14 768.011 1262.22 754.739 1168.69 722.717C1168.69 722.717 1152.9 715.064 1153.06 730.667C1153.06 740.51 1175.01 749.326 1175.01 749.326C1323.66 808.685 1487.61 817.923 1641.98 775.639C1692.87 762.142 1742.22 743.381 1789.23 719.661C1789.23 719.661 1804.96 711.305 1819.39 702.841C1822.79 701.097 1825.68 698.505 1827.78 695.315C1829.88 692.126 1831.11 688.447 1831.37 684.637C1831.63 680.828 1830.9 677.016 1829.25 673.572C1827.6 670.128 1825.09 667.169 1821.96 664.982C1816.11 661.77 1809.54 660.086 1802.86 660.086C1796.19 660.086 1789.62 661.77 1783.76 664.982C1777.49 668.741 1757.33 679.422 1743.7 686.156" fill="#67696C"/>
<path d="M1620.35 636.588C1477.42 697.443 1318.37 709.235 1168.04 670.121C1168.04 670.121 1151.68 663.82 1153.12 679.343C1154.03 689.159 1176.55 696.081 1176.55 696.081C1326.16 742.087 1486.83 736.824 1633.11 681.127C1656.18 672.852 1678.6 663.603 1700.37 653.382C1700.37 653.382 1722.32 642.889 1727.13 640.347C1730.66 638.931 1733.73 636.56 1735.99 633.499C1738.25 630.438 1739.61 626.808 1739.93 623.016C1740.24 619.224 1739.49 615.419 1737.77 612.028C1736.04 608.636 1733.41 605.793 1730.16 603.814C1713.67 591.077 1688.58 606.302 1680.96 609.952C1663.71 618.065 1635.46 630.531 1620.35 636.588Z" fill="#48494B"/>
</svg>
